
<svg xmlns="http://www.w3.org/2000/svg" xmlns:xlink="http://www.w3.org/1999/xlink" version="1.1" x="0px" y="0px" viewBox="0 0 95 118.75" enable-background="new 0 0 95 95" xml:space="preserve"><title>Group</title>
<desc>Created with Sketch.</desc>
<g>
<path d="M87.421,17.048H25.515l-0.834-5.443c-0.287-1.874-1.898-3.258-3.794-3.258H7.579c-2.121,0-3.839,1.718-3.839,3.839   c0,2.12,1.718,3.838,3.839,3.838h10.012l2.915,19.041l2.737,17.879c0,0.001,0.001,0.002,0.001,0.003l2.037,13.305   c0.287,1.874,1.898,3.257,3.794,3.257h50.669c2.12,0,3.839-1.718,3.839-3.838s-1.719-3.839-3.839-3.839H32.371l-0.862-5.63h51.307   c1.905,0,3.522-1.397,3.798-3.283l4.606-31.476c0.161-1.103-0.165-2.222-0.894-3.066C89.596,17.534,88.536,17.048,87.421,17.048z    M79.498,48.524H30.333l-3.644-23.799H82.98L79.498,48.524z"/>
<circle cx="35.984" cy="79.743" r="6.909"/>
<circle cx="76.417" cy="79.743" r="6.909"/>
</g>
<text x="0" y="110" fill="#000000" font-size="5px" font-weight="bold" font-family="'Helvetica Neue', Helvetica, Arial-Unicode, Arial, Sans-serif">Created by Guilherme Furtado</text>
<text x="0" y="115" fill="#000000" font-size="5px" font-weight="bold" font-family="'Helvetica Neue', Helvetica, Arial-Unicode, Arial, Sans-serif">from the Noun Project</text>
</svg>